# xmcd CD database file
#
# Track frame offsets:
#	150
#	30260
#	60370
#	74228
#
# Disc length: 1111 seconds
#
# Revision: 0
# Processed by: cddbd v1.5.1PL0 Copyright (c) Steve Scherf et al.
# Submitted via: CDex 1.51
#
DISCID=2f045504
DTITLE=COMIC TORANOANA - Winter Mix 2003
DYEAR=2003
DGENRE=Rock
TTITLE0=まちびと
TTITLE1=まちびと（カラオケバージョン）
TTITLE2=まちびと（ショートバージョン）
TTITLE3=White Bell Fantasia
EXTD=YEAR: 2003
EXTT0=
EXTT1=
EXTT2=
EXTT3=
PLAYORDER=
